<?xml version="1.0" encoding="UTF-8"?>
<svg version="1.1" xmlns="http://www.w3.org/2000/svg" width="500" height="500">
<path d="M0 0 C165 0 330 0 500 0 C500 165 500 330 500 500 C335 500 170 500 0 500 C0 335 0 170 0 0 Z " fill="#FEFEFE" transform="translate(0,0)"/>
<path d="M0 0 C6.65122616 0 6.65122616 0 9.5 2.5625 C12.15877317 4.63304902 12.71059118 4.99443445 16.25 5.0625 C19.10637559 4.25818061 19.10637559 4.25818061 20.38637352 1.96407795 C22 0 22 0 24.09987831 -0.49498463 C25.32161027 -0.4914021 25.32161027 -0.4914021 26.56802368 -0.48774719 C27.50467361 -0.49469101 28.44132355 -0.50163483 29.40635681 -0.50878906 C30.94471947 -0.48957397 30.94471947 -0.48957397 32.51416016 -0.4699707 C33.59563828 -0.4721611 34.67711639 -0.4743515 35.79136658 -0.47660828 C39.37424056 -0.47892416 42.95629776 -0.45263896 46.5390625 -0.42578125 C49.02102396 -0.42086021 51.50298911 -0.41755947 53.98495483 -0.41581726 C59.85576715 -0.40718906 65.72627661 -0.38002927 71.59698331 -0.34461802 C77.61648997 -0.30959736 83.63590078 -0.29810815 89.6554966 -0.28938007 C96.01254301 -0.27942911 102.36954526 -0.2595183 108.7265625 -0.23828125 C109.94843891 -0.2348855 111.17031532 -0.23148975 112.42921829 -0.2279911 C115.86774266 -0.21647342 119.30615075 -0.19796251 122.74462891 -0.17700195 C123.77425247 -0.17431305 124.80387604 -0.17162415 125.86470032 -0.16885376 C126.7957106 -0.16169846 127.72672089 -0.15454315 128.6859436 -0.14717102 C129.90654449 -0.1407608 129.90654449 -0.1407608 131.15180397 -0.13422108 C133 0 133 0 134 1 C134.09678239 3.03761187 134.12186965 5.07863712 134.12025452 7.11854553 C134.12153615 8.08762908 134.12153615 8.08762908 134.12284368 9.07629007 C134.12450024 11.25669817 134.11897429 13.43703055 134.11352539 15.61743164 C134.11324353 17.17420958 134.11340123 18.73098764 134.1139679 20.2877655 C134.11425592 24.52725204 134.10835846 28.76671054 134.10139394 33.00619054 C134.09516115 37.4318142 134.09455666 41.85743843 134.09336853 46.2830658 C134.09025499 54.66953978 134.0820413 63.0560008 134.07201904 71.44246906 C134.05877356 82.77092492 134.05335818 94.09938431 134.04751682 105.42784595 C134.03810142 123.28524036 134.01818266 141.14260739 134 159 C89.78 159 45.56 159 0 159 C0 106.53 0 54.06 0 0 Z " fill="#555555" transform="translate(173,153)"/>
<path d="M0 0 C0 56.76 0 113.52 0 172 C-9.57 172.33 -19.14 172.66 -29 173 C-29.99 173.66 -30.98 174.32 -32 175 C-32.69156183 181.01187271 -31.06960324 186.4139054 -29.5 192.1875 C-29.02692379 193.95066783 -28.55800883 195.71495872 -28.09375 197.48046875 C-27.88427734 198.25285889 -27.67480469 199.02524902 -27.45898438 199.82104492 C-27 202 -27 202 -27 206 C-34.43808422 206.07615491 -41.87606763 206.12864414 -49.31445312 206.16479492 C-51.84411374 206.17986786 -54.37374829 206.20032961 -56.90332031 206.22631836 C-60.54238323 206.26276616 -64.18110016 206.2797417 -67.8203125 206.29296875 C-68.94865509 206.30845261 -70.07699768 206.32393646 -71.23953247 206.33988953 C-77.04806353 206.34113044 -80.89469495 206.03944441 -86 203 C-87.32 203 -88.64 203 -90 203 C-90.66 203.99 -91.32 204.98 -92 206 C-95.125 206.1875 -95.125 206.1875 -98 206 C-98.28085449 205.3922876 -98.56170898 204.7845752 -98.85107422 204.15844727 C-104.10966309 192.83381481 -109.44577158 181.69483886 -116.00146484 171.05493164 C-119 166.17451924 -119 166.17451924 -119 164 C-101.84 164 -84.68 164 -67 164 C-67 110.54 -67 57.08 -67 2 C-47.01556161 -7.9922192 -22.34328137 0 0 0 Z " fill="#545454" transform="translate(379,153)"/>
<path d="M0 0 C6.04170843 0.30208542 9.86183366 2.79182709 14 7 C18.91513704 13.69826006 28 26.41878873 28 35 C25.69 35 23.38 35 21 35 C21 89.12 21 143.24 21 199 C-33 199 -33 199 -43 195 C-44.32 194.67 -45.64 194.34 -47 194 C-47 178.49 -47 162.98 -47 147 C-41.06 146.01 -35.12 145.02 -29 144 C-23.86916771 139.8050034 -23.86916771 139.8050034 -23.4375 136.0625 C-24.26934506 131.53356577 -26.01234086 128.53883288 -29.6953125 125.6875 C-34.24857155 122.73802045 -39.11542053 120.3702704 -43.99609375 118.015625 C-46 117 -46 117 -47 116 C-47.09550698 114.58321089 -47.12188483 113.16168759 -47.12025452 111.74168396 C-47.12162918 110.8231665 -47.12300385 109.90464905 -47.12442017 108.95829773 C-47.12082489 107.94266251 -47.11722961 106.92702728 -47.11352539 105.88061523 C-47.11367142 104.81733002 -47.11381744 103.7540448 -47.1139679 102.65853882 C-47.11326825 99.12520342 -47.10547343 95.59192 -47.09765625 92.05859375 C-47.09579225 89.61621632 -47.09436827 87.17383851 -47.09336853 84.73146057 C-47.08954189 78.28865536 -47.07971037 71.84587252 -47.06866455 65.40307617 C-47.05845356 58.83447574 -47.05387158 52.2658717 -47.04882812 45.69726562 C-47.03808823 32.79816751 -47.02120104 19.89908494 -47 7 C-46.21069092 7.7930957 -45.42138184 8.58619141 -44.6081543 9.40332031 C-38.78951679 15.48616672 -38.78951679 15.48616672 -31.1875 18.3125 C-27.87021261 18.28120344 -27.87021261 18.28120344 -25.4375 15.9375 C-23 14 -23 14 -20.5625 14 C-18 15 -18 15 -15.125 17.0625 C-11.31884096 19.42231861 -9.40848266 19.62978324 -5 19 C-0.2948474 16.54565128 -0.2948474 16.54565128 2 12 C2.41570134 5.68196327 2.41570134 5.68196327 0 0 Z " fill="#555555" transform="translate(147,113)"/>
<path d="M0 0 C41.58 0 83.16 0 126 0 C125.34757479 14.35335451 124.36223361 28.69654713 123 43 C87.03 43 51.06 43 14 43 C12 36 12 36 11.2109375 33.2109375 C8.77953317 24.9623415 5.77729866 16.9884106 2.64208984 8.98388672 C2.30129395 8.10877441 1.96049805 7.23366211 1.609375 6.33203125 C1.29967773 5.54546143 0.98998047 4.7588916 0.67089844 3.94848633 C0 2 0 2 0 0 Z " fill="#555555" transform="translate(181,105)"/>
<path d="M0 0 C-0.33755057 8.57230083 -1.02008071 16.95954642 -2.41015625 25.42578125 C-2.54231537 26.2324826 -2.67447449 27.03918396 -2.81063843 27.87033081 C-3.35921369 31.1766021 -3.91810468 34.48089142 -4.49145508 37.78295898 C-6.0754038 46.97969865 -7.27880275 56.00954281 -7.37109375 65.35546875 C-7.39212914 66.52520988 -7.39212914 66.52520988 -7.41358948 67.71858215 C-7.36693156 73.71947977 -6.04891896 77.95108104 -1.6875 82.3125 C1.28127082 84.17661191 3.53505637 84.67767966 7 85 C3.68482607 89.07292797 0.19344893 92.82459771 -3.56591797 96.48339844 C-11.40767167 104.12734623 -18.22172104 112.18047297 -24.21484375 121.37890625 C-24.80394531 122.24386719 -25.39304687 123.10882813 -26 124 C-26.33 124 -26.66 124 -27 124 C-27 96.28 -27 68.56 -27 40 C-46.8 40 -66.6 40 -87 40 C-83.99449951 36.99449951 -81.12066242 34.43325205 -77.8125 31.8125 C-68.74894482 24.41759935 -61.45708276 16.29491135 -54.3828125 7.0390625 C-52.66347949 4.84620827 -51.04006461 2.87794027 -49 1 C-48.505 2.36125 -48.505 2.36125 -48 3.75 C-45.00426182 8.61807454 -41.44432768 10.08059779 -36.0390625 11.5234375 C-28.94520748 12.31164361 -22.89444554 8.29138741 -16.8671875 5.04296875 C-11.13616244 1.98308729 -6.66853992 -0.18507504 0 0 Z " fill="#565656" transform="translate(411,108)"/>
<path d="M0 0 C1.32451172 0.81404297 1.32451172 0.81404297 2.67578125 1.64453125 C9.93230062 6.00453226 16.59080393 9.35248403 25 11 C24.95359375 11.76183594 24.9071875 12.52367187 24.859375 13.30859375 C24.55335682 22.06289948 26.13311984 27.60411709 30.875 34.875 C35.80096171 39.80096171 41.57737478 41.13986828 48.3125 41.1875 C49.21613281 41.20167969 50.11976563 41.21585938 51.05078125 41.23046875 C54.73559874 41.04091712 54.73559874 41.04091712 61 39 C60.67 45.27 60.34 51.54 60 58 C17.76 58 -24.48 58 -68 58 C-68 43.30864198 -68 43.30864198 -65 38 C-63.515 37.505 -63.515 37.505 -62 37 C-58.15469758 40.41804659 -56.03378384 43.50588961 -53.9921875 48.23046875 C-52.98743598 50.33659835 -52.98743598 50.33659835 -50 52 C-45.31194548 52.46112012 -42.97997082 52.48998541 -38.75 50.375 C-31.47165472 44.08915635 -29.61282066 35.89734182 -28.125 26.75 C-27.21628425 22.22061995 -25.94160839 18.66738154 -22 16 C-19.01697885 14.87289258 -16.00509539 13.96430884 -12.94921875 13.0546875 C-7.37580523 11.06154624 -4.05204509 7.99668882 -1.31640625 2.8046875 C-0.88199219 1.87914062 -0.44757813 0.95359375 0 0 Z " fill="#555555" transform="translate(248,42)"/>
<path d="M0 0 C28.05 0 56.1 0 85 0 C83.84966216 24.15709459 83.84966216 24.15709459 82.4375 32.8125 C82.29892578 33.71935547 82.16035156 34.62621094 82.01757812 35.56054688 C81.68799379 37.70852756 81.345621 39.85454131 81 42 C78.36 42 75.72 42 73 42 C73.61066483 31.99549108 74.26589399 21.99633717 75 12 C74.20078125 13.00417969 73.4015625 14.00835937 72.578125 15.04296875 C66.99995622 22.00648682 61.36421736 28.8777303 55.3125 35.4375 C54.8081543 35.98623779 54.30380859 36.53497559 53.78417969 37.1003418 C49.27572428 41.92562852 49.27572428 41.92562852 45.93722534 42.12025452 C45.08895172 42.11803391 44.2406781 42.11581329 43.36669922 42.11352539 C42.40585419 42.11344986 41.44500916 42.11337433 40.45504761 42.11329651 C39.41542877 42.10813522 38.37580994 42.10297394 37.3046875 42.09765625 C36.24210724 42.0962413 35.17952698 42.09482635 34.08474731 42.09336853 C30.68146991 42.08775834 27.27825762 42.07520409 23.875 42.0625 C21.57161553 42.05748631 19.26823003 42.05292318 16.96484375 42.04882812 C11.30985039 42.03863527 5.65499833 42.01906179 0 42 C0 28.14 0 14.28 0 0 Z " fill="#545454" transform="translate(173,317)"/>
<path d="M0 0 C23.21734896 2.3217349 44.87869656 7.98935545 66 18 C66 18.33 66 18.66 66 19 C65.27296875 19.06316406 64.5459375 19.12632812 63.796875 19.19140625 C51.44432881 20.69588303 42.92448695 26.05447239 35.03515625 35.5703125 C31.12994812 40.23257634 26.93916643 43.90322402 22 47.4375 C17.05479632 51.08709682 12.79276653 54.41446694 10 60 C9.76093646 64.30314376 9.68603989 67.32832196 12 71 C13.86439193 72.64362968 13.86439193 72.64362968 16 74.0625 C18.77920261 75.98852828 20.07469566 77.11204349 22 80 C22 81.32 22 82.64 22 84 C14.74 84 7.48 84 0 84 C0 56.28 0 28.56 0 0 Z " fill="#575757" transform="translate(384,242)"/>
<path d="M0 0 C16.17 0 32.34 0 49 0 C49 15.51 49 31.02 49 47 C61.54 47 74.08 47 87 47 C87 47.33 87 47.66 87 48 C85.90945312 48.14695312 84.81890625 48.29390625 83.6953125 48.4453125 C67.52784229 50.78341086 53.0151797 55.88127982 38.10375977 62.4597168 C37.34893311 62.79011963 36.59410645 63.12052246 35.81640625 63.4609375 C34.81782593 63.90638916 34.81782593 63.90638916 33.79907227 64.36083984 C32 65 32 65 29 65 C29.52715224 61.12976834 30.39717923 59.0913898 33.0625 56.25 C33.68640625 55.56808594 34.3103125 54.88617188 34.953125 54.18359375 C35.62859375 53.46300781 36.3040625 52.74242187 37 52 C38.44440826 50.44388391 39.88197018 48.88138398 41.3125 47.3125 C41.96863281 46.60738281 42.62476563 45.90226562 43.30078125 45.17578125 C46.78676374 40.71212092 47.58963605 36.60154252 47 31 C44.65976972 25.68129481 41.09806228 23.25440142 35.96484375 20.91015625 C27.22994244 18.22869116 17.745922 19.94462657 8.9375 21.5625 C1.10406008 22.72918254 1.10406008 22.72918254 -1.88671875 20.75390625 C-5.20292453 15.52942767 -0.98806302 4.94031508 0 0 Z " fill="#565656" transform="translate(119,317)"/>
<path d="M0 0 C0 14.85 0 29.7 0 45 C-9.55704698 43.80536913 -9.55704698 43.80536913 -13 40 C-13.96051535 38.17861931 -14.8955643 36.3437045 -15.8125 34.5 C-18.2480674 29.79791487 -20.14618498 27.57902601 -25.05078125 25.6171875 C-26.75627489 25.07717148 -28.47124744 24.56728016 -30.1875 24.0625 C-33.80378566 22.69634764 -35.65372361 21.05726924 -38 18 C-38.3125 15.5 -38.3125 15.5 -37 13 C-27.54386939 5.47369196 -12.0448023 0 0 0 Z " fill="#595959" transform="translate(96,261)"/>
<path d="M0 0 C2.64 0 5.28 0 8 0 C7.50255878 9.67733946 6.5453599 19.0701437 4.875 28.625 C4.65908203 29.88626709 4.44316406 31.14753418 4.22070312 32.44702148 C0.63710364 53.23333195 -2.98393258 74.08702705 -7.8125 94.625 C-8.10447266 95.87615601 -8.10447266 95.87615601 -8.40234375 97.15258789 C-9.241344 100.5732126 -10.027167 103.0407505 -12 106 C-14.5625 106.25 -14.5625 106.25 -17 106 C-18 105 -18 105 -18.25390625 101.83984375 C-18.17200371 95.96236156 -16.7092673 90.34278059 -15.40808105 84.63635254 C-12.25668145 70.74812221 -9.62233019 56.79072184 -7.25 42.75 C-7.10180817 41.8739209 -6.95361633 40.9978418 -6.80093384 40.09521484 C-4.97827472 29.27169079 -3.21836233 18.44059286 -1.79785156 7.55566406 C-1.09232763 2.18465526 -1.09232763 2.18465526 0 0 Z " fill="#5A5A5A" transform="translate(245,364)"/>
<path d="M0 0 C0.33 0 0.66 0 1 0 C1 11.55 1 23.1 1 35 C-8.78488549 31.08604581 -17.24204867 23.51590267 -22 14 C-22 13.01 -22 12.02 -22 11 C-21.030625 11.0825 -20.06125 11.165 -19.0625 11.25 C-13.38660989 11.21553103 -8.20042195 9.14529655 -4.12890625 5.17578125 C-3.08447844 3.94100209 -2.0692972 2.68051519 -1.09375 1.390625 C-0.7328125 0.93171875 -0.371875 0.4728125 0 0 Z " fill="#5D5D5D" transform="translate(95,192)"/>
<path d="M0 0 C1.051875 0.01353516 1.051875 0.01353516 2.125 0.02734375 C3.053125 0.04474609 3.053125 0.04474609 4 0.0625 C4.66 0.0625 5.32 0.0625 6 0.0625 C8.33333333 0.0625 10.66666667 0.0625 13 0.0625 C13 1.3825 13 2.7025 13 4.0625 C12.01 4.0625 11.02 4.0625 10 4.0625 C10.05220703 5.83367187 10.05220703 5.83367187 10.10546875 7.640625 C10.13361232 9.19790242 10.16091187 10.75519525 10.1875 12.3125 C10.21263672 13.08980469 10.23777344 13.86710937 10.26367188 14.66796875 C10.30826969 18.14659859 10.3343028 20.43531244 8.67578125 23.546875 C5.8697286 26.08475012 3.12379903 26.21980167 -0.5 26.25 C-1.66015625 26.27126953 -1.66015625 26.27126953 -2.84375 26.29296875 C-5 26.0625 -5 26.0625 -8 24.0625 C-7.67 23.0725 -7.34 22.0825 -7 21.0625 C-3.37 20.7325 0.26 20.4025 4 20.0625 C4 19.0725 4 18.0825 4 17.0625 C2.948125 17.31 1.89625 17.5575 0.8125 17.8125 C-3 18.0625 -3 18.0625 -5.875 16.25 C-8.36978473 13.68183925 -8.93412168 12.80363114 -9.25 9.25 C-8.96929042 5.67095281 -8.12271416 3.91999983 -6 1.0625 C-3.73845106 -0.06827447 -2.50117171 -0.04137968 0 0 Z " fill="#F4F4F4" transform="translate(286,278.9375)"/>
<path d="M0 0 C3.33333333 0 6.66666667 0 10 0 C11.7015625 -0.12375 11.7015625 -0.12375 13.4375 -0.25 C17 0 17 0 19.375 1.875 C22.07410941 5.40460461 22.34836112 7.55839569 22 12 C19.73529412 16.63235294 19.73529412 16.63235294 17 18 C10.46666667 18.23333333 10.46666667 18.23333333 8 17 C8 18.65 8 20.3 8 22 C9.65 22 11.3 22 13 22 C12.67 23.32 12.34 24.64 12 26 C8.37 26 4.74 26 1 26 C0.67 24.68 0.34 23.36 0 22 C0.99 22 1.98 22 3 22 C3 16.06 3 10.12 3 4 C2.01 4 1.02 4 0 4 C0 2.68 0 1.36 0 0 Z " fill="#F4F4F4" transform="translate(228,167)"/>
<path d="M0 0 C3.33333333 0 6.66666667 0 10 0 C11.7015625 -0.12375 11.7015625 -0.12375 13.4375 -0.25 C17 0 17 0 19.375 1.875 C22.07410941 5.40460461 22.34836112 7.55839569 22 12 C19.73529412 16.63235294 19.73529412 16.63235294 17 18 C10.46666667 18.23333333 10.46666667 18.23333333 8 17 C8 18.65 8 20.3 8 22 C9.65 22 11.3 22 13 22 C12.67 23.32 12.34 24.64 12 26 C8.37 26 4.74 26 1 26 C0.67 24.68 0.34 23.36 0 22 C0.99 22 1.98 22 3 22 C3 16.06 3 10.12 3 4 C2.01 4 1.02 4 0 4 C0 2.68 0 1.36 0 0 Z " fill="#F4F4F4" transform="translate(180,167)"/>
<path d="M0 0 C2.64 0 5.28 0 8 0 C8 2.97 8 5.94 8 9 C8.66 8.67 9.32 8.34 10 8 C16.26519337 7.4198895 16.26519337 7.4198895 19.375 9.875 C22.07410941 13.40460461 22.34836112 15.55839569 22 20 C19.73529412 24.63235294 19.73529412 24.63235294 17 26 C14.66705225 26.04241723 12.33297433 26.04092937 10 26 C9.01 26 8.02 26 7 26 C5 26 3 26 1 26 C1 24.68 1 23.36 1 22 C1.66 22 2.32 22 3 22 C3 16.06 3 10.12 3 4 C2.01 4 1.02 4 0 4 C0 2.68 0 1.36 0 0 Z " fill="#F6F6F6" transform="translate(204,271)"/>
<path d="M0 0 C5.66666667 0 11.33333333 0 17 0 C17.886875 -0.020625 18.77375 -0.04125 19.6875 -0.0625 C22 0 22 0 23 1 C23.07325168 3.86267567 23.09238205 6.700719 23.0625 9.5625 C23.05798828 10.36880859 23.05347656 11.17511719 23.04882812 12.00585938 C23.03700518 14.00393756 23.01906914 16.00197783 23 18 C21.35 18 19.7 18 18 18 C18 13.71 18 9.42 18 5 C17.01 5.495 17.01 5.495 16 6 C15.53101037 8.8159849 15.53101037 8.8159849 15.375 12.0625 C15.30023438 13.16722656 15.22546875 14.27195313 15.1484375 15.41015625 C15.09945312 16.26480469 15.05046875 17.11945313 15 18 C13.35 18 11.7 18 10 18 C10 13.71 10 9.42 10 5 C9.34 5 8.68 5 8 5 C8 9.29 8 13.58 8 18 C6.02 18 4.04 18 2 18 C2 13.38 2 8.76 2 4 C1.34 4 0.68 4 0 4 C0 2.68 0 1.36 0 0 Z " fill="#EDEDED" transform="translate(203,223)"/>
<path d="M0 0 C3.70718433 0.81785983 5.13329673 2.33819937 7.16015625 5.4765625 C7.85352718 8.3188103 7.85352718 10.6343147 7.16015625 13.4765625 C5.13329673 16.61492563 3.70718433 18.13526517 0 18.953125 C-4.19478356 19.21923815 -6.33149918 18.80854263 -9.90234375 16.4765625 C-12.04751037 13.15501419 -12.59937305 11.29788231 -12.3125 7.4140625 C-10.74731731 0.998107 -5.87069709 -0.37243154 0 0 Z " fill="#FAFAFA" transform="translate(265.83984375,278.5234375)"/>
<path d="M0 0 C3.70718433 0.81785983 5.13329673 2.33819937 7.16015625 5.4765625 C7.85352718 8.3188103 7.85352718 10.6343147 7.16015625 13.4765625 C5.13329673 16.61492563 3.70718433 18.13526517 0 18.953125 C-4.19478356 19.21923815 -6.33149918 18.80854263 -9.90234375 16.4765625 C-12.04751037 13.15501419 -12.59937305 11.29788231 -12.3125 7.4140625 C-10.74731731 0.998107 -5.87069709 -0.37243154 0 0 Z " fill="#FAFAFA" transform="translate(193.83984375,278.5234375)"/>
<path d="M0 0 C3.70718433 0.81785983 5.13329673 2.33819937 7.16015625 5.4765625 C7.85352718 8.3188103 7.85352718 10.6343147 7.16015625 13.4765625 C5.13329673 16.61492563 3.70718433 18.13526517 0 18.953125 C-4.19478356 19.21923815 -6.33149918 18.80854263 -9.90234375 16.4765625 C-12.04751037 13.15501419 -12.59937305 11.29788231 -12.3125 7.4140625 C-10.74731731 0.998107 -5.87069709 -0.37243154 0 0 Z " fill="#FAFAFA" transform="translate(217.83984375,166.5234375)"/>
<path d="M0 0 C1.60488281 -0.03867188 1.60488281 -0.03867188 3.2421875 -0.078125 C6.125 0.25 6.125 0.25 7.97265625 1.4453125 C9.48199755 3.80909447 9.56151887 5.58715959 9.6875 8.375 C9.77089072 10.99150598 9.77089072 10.99150598 10.125 13.25 C10.785 13.58 11.445 13.91 12.125 14.25 C12.125 15.57 12.125 16.89 12.125 18.25 C7.375 18.375 7.375 18.375 5.125 17.25 C4.465 17.58 3.805 17.91 3.125 18.25 C1.62850638 18.37005453 0.12625207 18.42531451 -1.375 18.4375 C-2.1690625 18.45167969 -2.963125 18.46585938 -3.78125 18.48046875 C-5.875 18.25 -5.875 18.25 -7.875 16.25 C-8.125 12.75 -8.125 12.75 -7.875 9.25 C-5.875 7.25 -5.875 7.25 -3.4921875 7.0546875 C-2.58726562 7.07789063 -1.68234375 7.10109375 -0.75 7.125 C0.61511719 7.15207031 0.61511719 7.15207031 2.0078125 7.1796875 C2.70648438 7.20289063 3.40515625 7.22609375 4.125 7.25 C3.795 6.59 3.465 5.93 3.125 5.25 C0.155 5.25 -2.815 5.25 -5.875 5.25 C-6.205 3.93 -6.535 2.61 -6.875 1.25 C-5.07228218 -0.55271782 -2.43091251 0.03497716 0 0 Z " fill="#F6F6F6" transform="translate(285.875,166.75)"/>
<path d="M0 0 C15.18 0 30.36 0 46 0 C48 4 48 4 48 8 C41.17391441 8.43570759 35.12201248 7.08134165 29.375 3.25 C25.95752411 1.45132848 23.6763644 2.11494931 20 3 C19.01 3.66 18.02 4.32 17 5 C10.33327966 6.13084408 5.70982637 4.3220808 0 1 C0 0.67 0 0.34 0 0 Z " fill="#5D5D5D" transform="translate(308,364)"/>
<path d="M0 0 C3.3 0 6.6 0 10 0 C10 7.26 10 14.52 10 22 C12.31 22 14.62 22 17 22 C17 23.32 17 24.64 17 26 C11.06 26 5.12 26 -1 26 C-1 24.68 -1 23.36 -1 22 C0.98 22 2.96 22 5 22 C5 16.06 5 10.12 5 4 C3.02 4 1.04 4 -1 4 C-0.67 2.68 -0.34 1.36 0 0 Z " fill="#F8F8F8" transform="translate(232,271)"/>
<path d="M0 0 C3.3 0 6.6 0 10 0 C10 7.26 10 14.52 10 22 C12.31 22 14.62 22 17 22 C17 23.32 17 24.64 17 26 C11.06 26 5.12 26 -1 26 C-1 24.68 -1 23.36 -1 22 C0.98 22 2.96 22 5 22 C5 16.06 5 10.12 5 4 C3.02 4 1.04 4 -1 4 C-0.67 2.68 -0.34 1.36 0 0 Z " fill="#F8F8F8" transform="translate(256,159)"/>
<path d="M0 0 C0 2.64 0 5.28 0 8 C-1.65 8 -3.3 8 -5 8 C-5.33 7.01 -5.66 6.02 -6 5 C-7.98 5 -9.96 5 -12 5 C-12 7.64 -12 10.28 -12 13 C-6.06 12.505 -6.06 12.505 0 12 C0.33 13.32 0.66 14.64 1 16 C-3.52503358 18.61865369 -7.88620718 18.71473976 -13 18 C-15.57637471 16.11484777 -16.59667428 14.80665143 -18 12 C-18.46398201 7.90149228 -18.38430032 5.66896723 -16.3125 2.0625 C-11.14836229 -1.1529065 -5.92751342 -0.39053895 0 0 Z " fill="#F6F6F6" transform="translate(272,223)"/>
<path d="M0 0 C2.31 0 4.62 0 7 0 C7.33 1.32 7.66 2.64 8 4 C8.350625 3.34 8.70125 2.68 9.0625 2 C11 0 11 0 14.6875 -0.25 C15.780625 -0.1675 16.87375 -0.085 18 0 C18 1.65 18 3.3 18 5 C16.88625 5.103125 15.7725 5.20625 14.625 5.3125 C13.42875 5.539375 12.2325 5.76625 11 6 C9.0549 8.91765 8.54723683 10.62537285 8 14 C10.31 14 12.62 14 15 14 C15 15.32 15 16.64 15 18 C9.72 18 4.44 18 -1 18 C-1 16.68 -1 15.36 -1 14 C0.32 14 1.64 14 3 14 C3 10.7 3 7.4 3 4 C2.01 4 1.02 4 0 4 C0 2.68 0 1.36 0 0 Z " fill="#FAFAFA" transform="translate(279,223)"/>
<path d="M0 0 C2.31 0 4.62 0 7 0 C7.33 1.32 7.66 2.64 8 4 C8.350625 3.34 8.70125 2.68 9.0625 2 C11 0 11 0 14.6875 -0.25 C15.780625 -0.1675 16.87375 -0.085 18 0 C18 1.65 18 3.3 18 5 C16.88625 5.103125 15.7725 5.20625 14.625 5.3125 C13.42875 5.539375 12.2325 5.76625 11 6 C9.0549 8.91765 8.54723683 10.62537285 8 14 C10.31 14 12.62 14 15 14 C15 15.32 15 16.64 15 18 C9.72 18 4.44 18 -1 18 C-1 16.68 -1 15.36 -1 14 C0.32 14 1.64 14 3 14 C3 10.7 3 7.4 3 4 C2.01 4 1.02 4 0 4 C0 2.68 0 1.36 0 0 Z " fill="#FAFAFA" transform="translate(183,223)"/>
<path d="M0 0 C3.3 0 6.6 0 10 0 C10 4.62 10 9.24 10 14 C12.31 14 14.62 14 17 14 C17 15.32 17 16.64 17 18 C11.06 18 5.12 18 -1 18 C-1 16.68 -1 15.36 -1 14 C0.98 14 2.96 14 5 14 C5 10.7 5 7.4 5 4 C3.35 4 1.7 4 0 4 C0 2.68 0 1.36 0 0 Z " fill="#FAFAFA" transform="translate(232,223)"/>
<path d="M0 0 C0.33 0 0.66 0 1 0 C1 10.56 1 21.12 1 32 C-1.3664623 28.84471694 -2.74779249 26.66634952 -4.1875 23.125 C-4.53167969 22.30257812 -4.87585938 21.48015625 -5.23046875 20.6328125 C-6.95919493 14.71828739 -5.85222122 10.97291478 -3 5.625 C-2.443125 4.56539062 -1.88625 3.50578125 -1.3125 2.4140625 C-0.879375 1.61742187 -0.44625 0.82078125 0 0 Z " fill="#6B6B6B" transform="translate(95,145)"/>
<path d="M0 0 C1.32 0.33 2.64 0.66 4 1 C4 6.61 4 12.22 4 18 C2.35 18 0.7 18 -1 18 C-1 13.38 -1 8.76 -1 4 C-1.66 3.67 -2.32 3.34 -3 3 C-1.75 1.4375 -1.75 1.4375 0 0 Z " fill="#F5F5F5" transform="translate(222,223)"/>
<path d="M0 0 C2.5 0.25 2.5 0.25 4.5 2.25 C4.125 5.875 4.125 5.875 3.5 9.25 C1.52 9.58 -0.46 9.91 -2.5 10.25 C-4.64915785 7.02626323 -4.88286803 5.98296326 -4.5 2.25 C-2.5 0.25 -2.5 0.25 0 0 Z " fill="#5D5D5D" transform="translate(263.5,282.75)"/>
<path d="M0 0 C2.5 0.25 2.5 0.25 4.5 2.25 C4.125 5.875 4.125 5.875 3.5 9.25 C1.52 9.58 -0.46 9.91 -2.5 10.25 C-4.64915785 7.02626323 -4.88286803 5.98296326 -4.5 2.25 C-2.5 0.25 -2.5 0.25 0 0 Z " fill="#5D5D5D" transform="translate(191.5,282.75)"/>
<path d="M0 0 C2.5 0.25 2.5 0.25 4.5 2.25 C4.125 5.875 4.125 5.875 3.5 9.25 C1.52 9.58 -0.46 9.91 -2.5 10.25 C-4.64915785 7.02626323 -4.88286803 5.98296326 -4.5 2.25 C-2.5 0.25 -2.5 0.25 0 0 Z " fill="#5D5D5D" transform="translate(215.5,170.75)"/>
<path d="M0 0 C4.55555556 0.55555556 4.55555556 0.55555556 6 2 C6.1875 4.9375 6.1875 4.9375 6 8 C5.34 8.66 4.68 9.32 4 10 C1.375 9.625 1.375 9.625 -1 9 C-1.625 5.625 -1.625 5.625 -2 2 C-1.34 1.34 -0.68 0.68 0 0 Z " fill="#5C5C5C" transform="translate(214,283)"/>
<path d="M0 0 C4.55555556 0.55555556 4.55555556 0.55555556 6 2 C6.1875 4.9375 6.1875 4.9375 6 8 C5.34 8.66 4.68 9.32 4 10 C1.375 9.625 1.375 9.625 -1 9 C-1.625 5.625 -1.625 5.625 -2 2 C-1.34 1.34 -0.68 0.68 0 0 Z " fill="#5C5C5C" transform="translate(238,171)"/>
<path d="M0 0 C4.55555556 0.55555556 4.55555556 0.55555556 6 2 C6.1875 4.9375 6.1875 4.9375 6 8 C5.34 8.66 4.68 9.32 4 10 C1.375 9.625 1.375 9.625 -1 9 C-1.625 5.625 -1.625 5.625 -2 2 C-1.34 1.34 -0.68 0.68 0 0 Z " fill="#5C5C5C" transform="translate(190,171)"/>
<path d="M0 0 C4.55555556 0.55555556 4.55555556 0.55555556 6 2 C6.1875 4.4375 6.1875 4.4375 6 7 C4 9 4 9 1.4375 9.1875 C-1 9 -1 9 -2 8 C-2.1875 5.0625 -2.1875 5.0625 -2 2 C-1.34 1.34 -0.68 0.68 0 0 Z " fill="#5A5A5A" transform="translate(285,283)"/>
<path d="M0 0 C2.46800047 1.15173355 4.04783565 2.04783565 6 4 C6.1953125 6.3828125 6.1953125 6.3828125 6.125 9.125 C6.10695313 10.03507812 6.08890625 10.94515625 6.0703125 11.8828125 C6.04710938 12.58148438 6.02390625 13.28015625 6 14 C3.74402173 11.74402173 3.03425808 9.95396133 1.875 7 C1.52179688 6.113125 1.16859375 5.22625 0.8046875 4.3125 C0 2 0 2 0 0 Z " fill="#6F6F6F" transform="translate(90,109)"/>
<path d="M0 0 C1.32 0 2.64 0 4 0 C4 1.98 4 3.96 4 6 C2.35 6 0.7 6 -1 6 C-1.042721 4.33388095 -1.04063832 2.66617115 -1 1 C-0.67 0.67 -0.34 0.34 0 0 Z " fill="#E8E8E8" transform="translate(238,214)"/>
<path d="M0 0 C2.31 0 4.62 0 7 0 C7 0.66 7 1.32 7 2 C4.69 2.33 2.38 2.66 0 3 C0 2.01 0 1.02 0 0 Z " fill="#595959" transform="translate(283,178)"/>
<path d="M0 0 C1.65 0 3.3 0 5 0 C5.33 0.99 5.66 1.98 6 3 C3.36 3 0.72 3 -2 3 C-1.34 2.67 -0.68 2.34 0 2 C0 1.34 0 0.68 0 0 Z " fill="#747474" transform="translate(284,171)"/>
</svg>
